{"glyphs":{"0":{"ha":772,"x_min":0,"x_max":0,"o":"m 110 847 b 21 415 31 728 11 561 b 357 -6 36 221 143 -1 b 661 860 757 -32 839 608 b 110 847 521 1060 236 1039 z m 258 568 b 299 622 281 581 297 600 b 386 744 306 704 346 744 b 375 218 539 744 519 235 b 258 568 254 206 235 493 z "},"1":{"ha":536,"x_min":0,"x_max":0,"o":"m 517 863 b 517 874 517 867 517 871 b 336 1001 507 926 388 1038 b 153 889 281 954 217 922 b 24 739 78 851 6 829 b 74 597 35 688 61 625 b 190 600 99 546 118 564 b 221 619 199 606 210 611 b 201 60 196 436 172 186 b 461 61 222 -31 449 -11 b 514 838 447 353 468 586 b 517 863 514 838 518 847 z "},"2":{"ha":772,"x_min":0,"x_max":0,"o":"m 481 1007 b 39 750 301 1029 88 917 b 153 572 11 665 72 590 b 354 724 304 546 258 654 b 443 624 461 797 492 711 b 136 300 375 496 182 346 b 49 204 96 260 58 222 b 49 85 38 188 29 151 b 126 1 76 -15 119 1 b 347 3 139 1 242 4 b 506 3 401 3 457 3 b 667 15 553 3 643 4 b 724 154 697 25 718 92 b 697 269 729 215 719 275 b 447 269 629 269 513 272 b 738 707 557 375 728 551 b 481 1007 749 856 639 988 z "},"3":{"ha":714,"x_min":0,"x_max":0,"o":"m 97 11 b 501 44 207 -21 372 -25 b 490 615 731 165 760 538 b 349 1026 681 789 618 1015 b 42 942 240 1031 121 1003 b 42 829 22 926 19 888 b 185 790 82 757 122 763 b 222 694 440 910 422 738 b 151 628 174 685 154 681 b 267 472 149 556 215 464 b 374 468 313 475 347 472 b 401 269 488 451 503 317 b 104 278 304 225 196 239 b 97 11 63 296 -33 61 z "},"4":{"ha":856,"x_min":0,"x_max":0,"o":"m 707 960 b 596 881 603 971 600 896 b 539 532 592 863 557 706 b 397 526 494 532 444 532 b 556 815 457 622 515 711 b 454 1006 590 911 581 965 b 333 1007 394 1025 335 1029 b 301 914 333 1004 322 967 b 49 489 236 760 160 604 b 42 346 22 460 35 381 b 124 257 65 242 113 258 b 374 257 138 257 251 260 b 522 250 425 256 475 253 b 522 247 522 249 522 249 b 540 60 522 165 529 96 b 801 61 572 -43 808 0 b 825 860 783 229 781 611 b 707 960 844 928 757 954 z "},"5":{"ha":735,"x_min":0,"x_max":0,"o":"m 458 667 b 294 669 408 675 350 671 b 293 744 294 681 294 735 b 531 740 361 725 463 728 b 640 849 601 754 631 775 b 579 1006 651 928 632 1024 b 194 993 497 978 288 986 b 49 918 119 997 49 1011 b 35 651 44 844 40 707 b 92 486 26 585 53 535 b 138 467 108 469 122 469 b 339 485 203 457 276 486 b 319 208 532 479 519 215 b 132 286 254 206 183 236 b 68 74 76 340 -22 146 b 424 3 171 -17 308 -28 b 458 667 781 97 801 611 z "},"6":{"ha":808,"x_min":0,"x_max":0,"o":"m 389 656 b 569 879 436 719 538 843 b 351 981 622 939 451 1069 b 25 415 190 833 46 636 b 375 -1 4 189 144 -1 b 753 260 538 -1 689 110 b 718 582 800 372 800 500 b 389 656 643 656 514 669 z m 288 426 b 469 471 336 457 411 479 b 369 214 644 446 521 207 b 288 426 283 218 215 293 z "},"7":{"ha":725,"x_min":0,"x_max":0,"o":"m 660 985 b 604 1008 636 1018 611 1008 b 210 1014 485 1003 347 997 b 28 882 81 1024 49 1008 b 69 765 14 796 29 772 b 401 760 174 744 303 760 b 153 94 293 582 156 301 b 275 -3 156 39 215 7 b 393 31 335 -11 388 -3 b 693 810 443 311 560 574 b 706 853 693 810 707 826 b 660 985 706 882 678 960 z "},"8":{"ha":858,"x_min":0,"x_max":0,"o":"m 681 619 b 451 1022 835 817 686 1024 b 210 564 176 1021 -3 749 b 150 86 -17 426 4 207 b 697 110 311 -46 558 -17 b 681 619 858 253 854 508 z m 397 656 b 343 778 350 696 333 742 b 533 785 368 861 553 874 b 397 656 517 724 444 682 z m 586 325 b 275 326 563 179 257 172 b 586 325 293 482 594 481 z "},"9":{"ha":765,"x_min":0,"x_max":0,"o":"m 246 143 b 286 17 210 104 233 53 b 467 53 358 -35 418 4 b 732 633 618 210 732 421 b 653 907 732 736 708 836 b 142 926 533 1061 271 1047 b 32 658 69 858 35 763 b 417 369 28 486 168 290 b 246 143 382 310 289 189 z m 364 560 b 381 821 199 553 192 817 b 364 560 538 824 531 567 z "},"\u0000":{"ha":0,"x_min":0,"x_max":0,"o":""},"\r":{"ha":414,"x_min":0,"x_max":0,"o":""}," ":{"ha":414,"x_min":0,"x_max":0,"o":""},"y":{"ha":828,"x_min":0,"x_max":0,"o":"m 686 829 b 574 731 618 831 585 785 b 446 376 543 606 499 489 b 239 801 340 463 283 646 b 22 732 207 913 10 836 b 313 131 49 522 144 265 b 169 -87 267 54 210 -11 b 222 -242 143 -139 176 -200 b 385 -237 292 -301 333 -297 b 803 708 618 32 747 383 b 686 829 819 783 753 828 z "},"S":{"ha":963,"x_min":0,"x_max":0,"o":"m 433 625 b 336 753 329 669 314 717 b 689 728 394 846 619 800 b 817 721 721 694 772 671 b 839 856 839 746 858 803 b 175 951 761 1068 335 1068 b 278 428 -49 794 29 517 b 524 351 357 399 443 383 b 521 238 606 317 665 247 b 325 283 454 235 381 267 b 143 133 225 336 108 269 b 221 51 158 97 186 71 b 711 32 354 -24 563 -25 b 882 407 896 101 978 274 b 663 544 828 479 746 513 b 433 625 619 560 518 589 z "},"c":{"ha":840,"x_min":0,"x_max":0,"o":"m 513 613 b 681 582 568 624 621 582 b 778 732 769 582 796 671 b 504 849 750 818 611 857 b 56 293 217 826 -8 563 b 754 160 136 -36 544 -71 b 692 408 833 247 793 388 b 601 364 640 419 615 383 b 482 290 583 328 526 300 b 361 511 290 256 285 406 b 513 613 390 553 451 601 z "},"h":{"ha":872,"x_min":0,"x_max":0,"o":"m 822 99 b 807 554 821 264 818 450 b 303 747 775 853 460 938 b 300 953 301 822 300 888 b 172 1044 300 953 313 1049 b 81 988 114 1042 90 1014 b 89 67 35 874 42 190 b 346 79 126 -39 363 14 b 317 440 344 88 326 254 b 564 454 356 656 575 696 b 567 110 560 351 556 157 b 708 25 581 47 647 24 b 822 99 771 28 829 57 z "},"o":{"ha":850,"x_min":0,"x_max":0,"o":"m 796 444 b 421 821 801 686 610 824 b 113 632 283 818 176 739 b 54 393 71 560 51 476 b 796 444 69 -158 796 -39 z m 525 424 b 290 418 506 235 290 208 b 525 424 290 651 550 656 z "},"":{"ha":1739,"x_min":0,"x_max":0,"o":"m 933 714 b 1235 -3 817 438 917 24 b 1644 739 1594 -33 1768 446 b 933 714 1510 1054 1057 1008 z m 1140 532 b 1432 518 1179 744 1440 744 b 1140 532 1415 163 1075 203 z m 796 444 b 421 821 801 686 610 824 b 113 632 283 818 176 739 b 54 393 71 560 51 476 b 796 444 69 -158 796 -39 z m 525 424 b 290 418 506 235 290 208 b 525 424 290 651 550 656 z "},"l":{"ha":379,"x_min":0,"x_max":0,"o":"m 308 929 b 183 1026 322 1000 242 1024 b 79 929 81 1026 82 943 b 78 56 47 772 14 264 b 336 69 117 -50 354 4 b 308 929 317 179 290 740 z "},"A":{"ha":829,"x_min":0,"x_max":0,"o":"m 814 100 b 751 653 814 161 783 492 b 435 1050 721 815 629 1050 b 274 978 371 1051 318 1022 b 24 61 85 789 -14 151 b 231 68 57 -22 207 -12 b 249 169 236 92 244 150 b 554 167 354 163 456 163 b 565 101 556 160 564 107 b 708 4 583 3 646 -3 b 814 100 769 10 814 33 z m 283 406 b 386 703 317 519 340 618 b 460 700 410 743 435 753 b 522 424 499 614 510 503 b 283 406 439 418 361 414 z "},"g":{"ha":876,"x_min":0,"x_max":0,"o":"m 785 713 b 381 833 744 876 490 865 b 51 489 204 782 79 664 b 524 42 10 203 275 19 b 274 -90 496 -106 389 -212 b 226 -33 256 -71 240 -50 b 42 -89 163 43 53 -4 b 147 -283 42 -165 86 -233 b 615 -279 294 -403 483 -387 b 785 713 857 -68 854 439 z m 540 613 b 538 619 540 613 536 619 b 554 294 554 519 565 418 b 540 613 254 258 240 613 z "},"e":{"ha":797,"x_min":0,"x_max":0,"o":"m 753 618 b 429 833 719 771 568 836 b 64 296 150 822 -4 532 b 364 17 108 146 232 47 b 711 193 499 -10 678 57 b 538 282 718 283 599 343 b 353 296 483 182 353 171 b 507 308 417 294 463 297 b 753 618 656 342 782 465 z m 325 500 b 325 500 486 768 663 489 z "},"i":{"ha":353,"x_min":0,"x_max":0,"o":"m 296 631 b 163 686 296 631 303 696 b 68 619 60 681 69 628 b 50 74 56 489 24 139 b 307 56 74 4 318 11 b 296 631 306 64 307 621 z m 289 846 b 189 943 289 900 246 943 b 93 846 136 943 93 900 b 189 749 93 790 136 749 b 289 846 246 749 289 790 z "},"n":{"ha":888,"x_min":0,"x_max":0,"o":"m 822 513 b 519 815 792 675 685 808 b 311 774 449 818 375 799 b 301 796 308 779 307 788 b 185 836 288 817 254 836 b 83 758 82 838 86 769 b 68 65 68 660 35 164 b 328 61 99 -19 340 7 b 314 371 325 71 318 217 b 315 376 314 372 314 375 b 447 557 313 493 379 556 b 586 408 536 560 572 475 b 586 157 604 325 597 235 b 575 82 586 157 575 106 b 804 53 575 -8 768 -26 b 822 513 842 136 844 399 z "},"u":{"ha":910,"x_min":0,"x_max":0,"o":"m 643 771 b 563 474 600 671 588 571 b 394 226 531 349 483 231 b 294 528 310 224 267 319 b 335 751 310 643 344 688 b 231 838 326 783 300 819 b 126 799 181 850 149 829 b 89 721 111 779 99 751 b 339 7 7 472 17 44 b 575 69 411 -1 490 17 b 581 49 576 60 579 54 b 835 81 613 -51 854 3 b 829 171 833 83 835 108 b 829 401 826 236 826 318 b 868 732 836 517 847 625 b 643 771 892 825 686 885 z "},"W":{"ha":1311,"x_min":0,"x_max":0,"o":"m 1118 1031 b 958 976 1060 1053 992 1024 b 944 904 940 954 933 928 b 1013 447 976 835 1025 611 b 799 461 997 231 838 168 b 793 685 789 540 788 611 b 649 810 800 774 746 821 b 563 731 597 807 568 772 b 539 533 546 618 544 571 b 308 438 518 239 301 186 b 383 867 315 592 351 731 b 367 968 390 907 385 940 b 296 1028 351 996 324 1018 b 206 1033 267 1039 232 1040 b 124 924 172 1024 144 981 b 47 414 67 769 39 583 b 660 160 64 68 388 -179 b 661 157 660 160 660 158 b 965 14 731 36 854 -6 b 1210 921 1322 81 1306 681 b 1118 1031 1189 974 1160 1015 z "},"w":{"ha":1232,"x_min":0,"x_max":0,"o":"m 997 874 b 908 844 965 875 933 863 b 847 725 878 822 821 767 b 869 681 850 722 858 707 b 885 301 908 588 961 382 b 725 432 831 247 739 283 b 707 606 718 493 726 553 b 593 671 686 653 638 671 b 501 606 543 672 508 643 b 432 342 489 524 465 414 b 307 428 368 194 265 243 b 396 672 328 521 360 600 b 411 728 396 672 411 699 b 329 826 410 761 393 797 b 221 804 281 844 244 829 b 47 332 124 683 43 499 b 364 17 50 147 178 0 b 588 131 453 24 533 67 b 835 17 650 50 742 13 b 1178 496 1079 26 1179 275 b 1086 824 1178 578 1149 746 b 997 874 1064 851 1029 874 z "},"":{"ha":1553,"x_min":0,"x_max":0,"o":"m 1043 810 b 1043 811 1043 811 1043 811 b 1024 867 1043 811 1043 842 b 903 900 1006 892 971 914 b 817 774 800 879 818 790 b 814 28 821 519 821 274 b 821 -193 813 -71 813 -150 b 1001 -279 835 -268 931 -292 b 1082 -193 1065 -268 1079 -236 b 1083 8 1086 -126 1086 -57 b 1043 810 1683 -12 1604 911 z m 1081 281 b 1065 579 1078 399 1071 489 b 1081 281 1303 599 1314 283 z m 243 807 b 138 825 221 824 190 833 b 49 710 36 807 50 725 b 69 -186 47 599 42 -74 b 328 -193 97 -297 339 -265 b 321 38 326 -186 325 -89 b 496 783 794 61 890 619 b 243 807 411 819 328 821 z m 310 275 b 293 539 306 368 299 454 b 310 275 556 536 507 275 z "},"v":{"ha":863,"x_min":0,"x_max":0,"o":"m 710 836 b 589 817 649 847 592 842 b 454 350 567 656 489 431 b 392 350 421 278 415 303 b 253 797 329 485 286 675 b 232 832 253 797 250 818 b 110 840 213 847 178 858 b 29 729 11 814 26 742 b 186 174 50 538 106 344 b 596 128 290 -50 458 -39 b 836 740 736 299 811 590 b 710 836 835 792 772 822 z "},"m":{"ha":1729,"x_min":0,"x_max":0,"o":"m 1674 125 b 1632 629 1674 221 1669 513 b 1232 832 1553 876 1382 904 b 932 464 1076 757 992 610 b 661 864 910 704 850 864 b 306 575 488 860 364 713 b 299 772 301 646 299 708 b 288 813 299 772 303 793 b 72 767 251 854 86 864 b 99 94 40 578 40 272 b 254 -10 119 29 160 -11 b 406 79 335 -7 401 19 b 590 638 419 275 489 618 b 674 536 631 644 657 611 b 782 35 703 414 689 125 b 918 0 821 -3 872 -4 b 1049 99 985 7 1039 39 b 1257 601 1058 307 1190 567 b 1394 99 1406 676 1374 344 b 1674 125 1407 -44 1689 -21 z "},"":{"ha":3194,"x_min":0,"x_max":0,"o":"m 2525 724 b 2525 722 2525 724 2525 722 b 2050 703 2399 892 2167 843 l 2050 701 b 2050 769 2050 744 2050 769 b 1919 847 2050 769 2060 851 b 1821 763 1817 843 1824 774 b 1810 31 1804 665 1774 129 b 2068 28 1840 -60 2065 -28 b 2101 306 2069 78 2078 203 b 2342 354 2174 618 2333 729 b 2353 83 2344 238 2346 140 b 2489 -33 2361 1 2426 -33 b 2610 60 2553 -32 2613 4 b 2640 410 2610 176 2618 299 b 2890 438 2693 669 2863 693 b 2874 96 2899 367 2879 193 b 3003 -12 2865 15 2921 -12 b 3107 43 3054 -12 3093 7 b 3100 572 3140 132 3147 403 b 2525 724 3024 846 2726 924 z m 1674 125 b 1632 629 1674 221 1669 513 b 1232 832 1553 876 1382 904 b 932 464 1076 757 992 610 b 661 864 910 704 850 864 b 306 575 488 860 364 713 b 299 772 301 646 299 708 b 288 813 299 772 303 793 b 72 767 251 854 86 864 b 99 94 40 578 40 272 b 254 -10 119 29 160 -11 b 406 79 335 -7 401 19 b 590 638 419 275 489 618 b 674 536 631 644 657 611 b 782 35 703 414 689 125 b 918 0 821 -3 872 -4 b 1049 99 985 7 1039 39 b 1257 601 1058 307 1190 567 b 1394 99 1406 676 1374 344 b 1674 125 1407 -44 1689 -21 z "},"b":{"ha":839,"x_min":0,"x_max":0,"o":"m 307 818 b 308 954 307 900 308 954 b 181 1047 308 954 321 1050 b 79 949 100 1046 83 964 b 74 79 43 839 39 189 b 283 32 97 6 215 4 b 379 22 315 19 347 18 b 783 533 628 58 826 296 b 307 818 746 756 514 889 z m 324 242 b 321 242 321 242 321 242 b 318 582 313 328 310 447 b 324 242 665 708 635 233 z "},"":{"ha":1656,"x_min":0,"x_max":0,"o":"m 1132 828 b 1133 1021 1132 919 1133 969 b 1007 1124 1133 1021 1147 1128 b 913 1058 946 1121 922 1089 b 901 32 869 929 861 174 b 1161 28 936 -83 1161 -42 b 1604 529 1419 1 1642 275 b 1132 828 1568 772 1336 844 z m 1147 263 b 1133 599 1140 369 1131 478 b 1147 263 1471 640 1406 282 z m 307 818 b 308 954 307 900 308 954 b 181 1047 308 954 321 1050 b 79 949 100 1046 83 964 b 74 79 43 839 39 189 b 283 32 97 6 215 4 b 379 22 315 19 347 18 b 783 533 628 58 826 296 b 307 818 746 756 514 889 z m 324 242 b 321 242 321 242 321 242 b 318 582 313 328 310 447 b 324 242 665 708 635 233 z "},"d":{"ha":849,"x_min":0,"x_max":0,"o":"m 815 89 b 799 946 781 282 768 694 b 792 993 799 946 803 968 b 679 1049 779 1017 749 1044 b 581 1000 618 1054 592 1026 b 546 810 558 953 553 856 b 39 415 292 878 46 667 b 565 51 32 138 333 -65 b 711 14 593 11 654 3 b 815 89 772 25 826 57 z m 299 410 b 522 568 304 539 411 611 b 518 349 517 488 517 418 b 299 410 424 250 299 285 z "},"":{"ha":1640,"x_min":0,"x_max":0,"o":"m 1596 32 b 1601 858 1588 71 1592 706 b 1608 1008 1606 947 1608 1008 b 1485 1108 1608 1008 1625 1115 b 1385 1028 1414 1106 1393 1060 b 1356 817 1364 960 1364 885 b 1336 32 728 885 739 -76 b 1338 25 1336 31 1338 26 b 1596 32 1368 -93 1608 -39 z m 1335 585 b 1321 296 1326 438 1322 390 b 1335 585 1058 228 1117 651 z m 815 89 b 799 946 781 282 768 694 b 792 993 799 946 803 968 b 679 1049 779 1017 749 1044 b 581 1000 618 1054 592 1026 b 546 810 558 953 553 856 b 39 415 292 878 46 667 b 565 51 32 138 333 -65 b 711 14 593 11 654 3 b 815 89 772 25 826 57 z m 299 410 b 522 568 304 539 411 611 b 518 349 517 488 517 418 b 299 410 424 250 299 285 z "},"k":{"ha":819,"x_min":0,"x_max":0,"o":"m 776 188 b 517 436 768 193 611 344 b 786 744 589 497 721 594 b 571 886 811 799 599 914 b 288 568 521 769 375 656 b 294 954 286 701 283 828 b 169 1050 299 1026 228 1049 b 65 957 67 1054 67 971 b 68 82 42 811 18 242 b 219 31 89 31 158 19 b 328 103 282 42 336 71 b 301 318 318 150 311 247 b 585 14 357 240 513 39 b 776 188 644 -7 808 172 z "},"f":{"ha":590,"x_min":0,"x_max":0,"o":"m 460 813 b 565 893 554 825 557 801 b 465 1043 574 992 547 1043 b 261 990 390 1043 318 1029 b 94 643 139 911 118 767 b 94 642 94 643 94 643 b 69 640 79 640 69 640 b 32 506 69 640 19 644 b 74 414 40 436 58 418 b 121 -22 75 257 82 89 b 278 -74 146 -83 217 -92 b 379 11 339 -58 389 -22 b 342 394 354 113 344 283 b 511 411 414 392 481 394 b 524 669 564 439 558 681 b 358 661 518 668 444 665 b 358 661 358 661 358 661 b 460 813 371 753 369 796 z "},"":{"ha":1181,"x_min":0,"x_max":0,"o":"m 1079 838 b 1129 1003 1113 824 1138 942 b 910 1090 1124 1038 1032 1100 b 672 868 775 1081 706 982 b 678 -124 600 629 642 31 b 936 -129 711 -262 951 -217 b 899 414 935 -117 900 117 b 1115 410 956 406 1069 374 b 1085 650 1151 438 1156 678 b 897 647 1061 640 922 647 b 1079 838 890 807 925 921 z m 460 813 b 565 893 554 825 557 801 b 465 1043 574 992 547 1043 b 261 990 390 1043 318 1029 b 94 643 139 911 118 767 b 94 642 94 643 94 643 b 69 640 79 640 69 640 b 32 506 69 640 19 644 b 74 414 40 436 58 418 b 121 -22 75 257 82 89 b 278 -74 146 -83 217 -92 b 379 11 339 -58 389 -22 b 342 394 354 113 344 283 b 511 411 414 392 481 394 b 524 669 564 439 558 681 b 358 661 518 668 444 665 b 358 661 358 661 358 661 b 460 813 371 753 369 796 z "},"j":{"ha":728,"x_min":0,"x_max":0,"o":"m 628 929 b 531 1026 628 982 585 1026 b 432 929 476 1026 432 982 b 531 831 432 875 476 831 b 628 929 585 831 628 875 z m 393 79 b 260 78 364 -43 276 -76 b 253 189 256 121 256 168 b 31 158 239 308 40 289 b 88 -100 28 82 46 -17 b 572 -121 193 -306 438 -315 b 660 101 615 -58 643 21 b 661 675 696 282 683 489 b 403 672 644 818 386 758 b 406 644 403 671 404 660 b 393 79 419 461 428 274 z "},"q":{"ha":779,"x_min":0,"x_max":0,"o":"m 726 -162 b 743 589 717 -121 733 447 b 754 725 749 671 754 725 b 635 825 772 796 688 822 b 554 799 594 826 571 815 b 35 425 290 892 58 685 b 451 25 18 172 200 -17 b 467 -167 451 -58 456 -126 b 726 -162 497 -275 739 -228 z m 500 572 b 465 285 483 467 476 375 b 500 572 203 217 274 672 z "},"r":{"ha":700,"x_min":0,"x_max":0,"o":"m 485 817 b 304 717 421 822 353 768 b 306 760 306 744 306 760 b 181 839 310 824 228 838 b 88 800 122 842 99 821 b 63 60 31 696 33 135 b 319 68 96 -25 336 17 b 301 554 301 228 292 394 b 490 404 399 660 414 446 b 665 553 575 357 653 458 b 485 817 681 647 600 806 z "},"s":{"ha":633,"x_min":0,"x_max":0,"o":"m 469 511 b 347 588 438 533 388 563 b 399 665 226 667 307 717 b 482 596 460 631 472 608 b 572 610 490 585 535 582 b 553 790 600 629 647 717 b 213 853 457 861 322 886 b 146 415 -1 788 -17 553 b 335 274 193 375 292 317 b 346 190 368 236 364 204 b 211 288 290 146 231 250 b 64 125 142 421 -25 281 b 389 -17 133 3 267 -43 b 597 317 549 18 626 168 b 469 511 578 419 510 482 z "},"t":{"ha":685,"x_min":0,"x_max":0,"o":"m 479 313 b 357 283 435 243 381 228 b 347 503 326 353 340 438 b 581 526 429 496 511 486 b 581 786 632 557 658 813 b 372 765 511 776 442 769 b 376 926 378 835 379 893 b 246 1028 365 990 303 1021 b 119 965 203 1035 119 1022 b 101 751 119 957 113 872 b 83 750 90 750 83 750 b 57 735 83 750 69 751 b 82 526 24 693 33 551 b 86 300 81 446 76 372 b 333 1 108 161 192 29 b 625 132 449 -18 569 40 b 636 247 646 167 656 206 b 479 313 603 317 508 361 z "},"x":{"ha":818,"x_min":0,"x_max":0,"o":"m 775 172 b 579 386 706 239 640 311 b 783 664 657 475 738 563 b 575 818 821 763 601 874 b 411 597 572 810 501 711 b 264 801 375 639 275 781 b 108 803 226 857 153 833 b 75 671 21 746 68 685 b 243 396 82 656 150 532 b 50 185 196 342 81 217 b 86 38 -3 140 47 69 b 228 42 164 -28 215 32 b 393 193 239 50 308 111 b 575 10 444 125 507 56 b 775 172 667 -44 825 136 z "},"z":{"ha":729,"x_min":0,"x_max":0,"o":"m 678 254 b 390 258 604 268 482 264 b 385 257 388 258 386 258 b 668 622 472 396 564 518 b 685 658 668 622 682 635 b 651 831 692 736 681 819 b 76 796 565 861 189 881 b 138 563 28 761 108 542 b 213 583 140 564 169 574 b 335 607 246 590 290 600 b 69 296 260 506 140 396 b 146 4 -19 169 107 -3 b 649 18 286 17 515 21 b 678 254 693 17 731 235 z "},"":{"ha":1267,"x_min":0,"x_max":0,"o":"m 1107 599 b 1229 682 1146 546 1217 589 b 1221 747 1232 703 1231 724 b 957 900 1174 857 1064 896 b 649 653 801 906 663 794 b 764 408 636 550 690 465 b 971 263 799 381 918 325 b 911 169 1022 203 982 125 b 822 279 883 186 851 221 b 663 174 772 376 644 282 b 943 -49 690 24 822 -47 b 1183 383 1188 -51 1297 193 b 971 572 1131 471 1038 532 b 903 672 918 603 893 646 b 1022 689 915 710 978 713 b 1107 599 1069 663 1099 608 z m 469 511 b 347 588 438 533 388 563 b 399 665 226 667 307 717 b 482 596 460 631 472 608 b 572 610 490 585 535 582 b 553 790 600 629 647 717 b 213 853 457 861 322 886 b 146 415 -1 788 -17 553 b 335 274 193 375 292 317 b 346 190 368 236 364 204 b 211 288 290 146 231 250 b 64 125 142 421 -25 281 b 389 -17 133 3 267 -43 b 597 317 549 18 626 168 b 469 511 578 419 510 482 z "},"":{"ha":1289,"x_min":0,"x_max":0,"o":"m 1236 786 b 1096 786 1231 785 1171 786 b 1100 978 1092 850 1096 915 b 976 1079 1106 1053 1040 1081 b 872 969 874 1078 874 986 b 850 779 869 957 858 883 b 738 772 786 775 738 772 b 690 638 738 772 683 778 b 749 543 697 535 740 544 b 835 535 756 543 786 539 b 868 6 828 368 819 147 b 1126 24 906 -111 1144 -46 b 1094 517 1096 192 1090 358 b 1206 529 1142 517 1183 519 b 1236 786 1267 554 1275 796 z m 479 313 b 357 283 435 243 381 228 b 347 503 326 353 340 438 b 581 526 429 496 511 486 b 581 786 632 557 658 813 b 372 765 511 776 442 769 b 376 926 378 835 379 893 b 246 1028 365 990 303 1021 b 119 965 203 1035 119 1022 b 101 751 119 957 113 872 b 83 750 90 750 83 750 b 57 735 83 750 69 751 b 82 526 24 693 33 551 b 86 300 81 446 76 372 b 333 1 108 161 192 29 b 625 132 449 -18 569 40 b 636 247 646 167 656 206 b 479 313 603 317 508 361 z "},"B":{"ha":774,"x_min":0,"x_max":0,"o":"m 549 565 b 244 1029 783 806 500 1065 b 142 1047 225 1046 193 1054 b 51 938 40 1032 51 951 b 57 61 44 828 31 171 b 260 -4 75 -12 190 -25 b 265 -4 261 -4 265 -4 b 725 347 482 -8 760 90 b 549 565 713 446 651 538 z m 296 638 b 288 856 294 676 289 821 b 296 638 479 871 471 654 z m 315 204 b 307 411 314 249 310 363 b 315 204 563 436 599 197 z "},"C":{"ha":819,"x_min":0,"x_max":0,"o":"m 569 385 b 442 267 542 307 492 269 b 453 793 228 254 225 776 b 567 665 514 797 569 758 b 781 708 569 574 768 569 b 422 1036 797 897 638 1057 b 28 544 185 1013 31 782 b 456 -3 22 306 174 -8 b 771 232 597 3 718 97 b 569 385 828 401 615 497 z "},"D":{"ha":772,"x_min":0,"x_max":0,"o":"m 207 1044 b 133 1047 188 1049 164 1051 b 42 939 31 1036 42 953 b 32 544 40 918 36 739 b 50 63 29 349 29 142 b 261 3 71 -15 192 -24 b 468 1015 785 -35 921 825 b 207 1044 389 1049 300 1060 z m 285 217 b 285 818 293 233 276 818 b 285 217 596 818 599 267 z "},"E":{"ha":633,"x_min":0,"x_max":0,"o":"m 574 239 b 296 226 578 240 375 235 b 293 450 296 290 294 368 b 524 458 363 446 465 428 b 532 654 564 479 561 663 b 283 640 533 654 347 647 b 269 825 278 708 274 772 b 269 828 269 825 269 826 b 564 813 351 817 490 785 b 585 1036 615 832 618 1043 b 190 1046 571 1033 236 1047 b 29 926 93 1042 29 1029 b 26 544 26 907 29 733 b 25 272 25 453 24 356 b 36 79 25 190 26 117 b 344 -1 58 -19 283 0 b 561 8 432 -3 525 -7 b 574 239 608 32 607 249 z "},"G":{"ha":858,"x_min":0,"x_max":0,"o":"m 799 525 b 442 518 796 524 446 510 b 436 342 400 518 372 363 b 588 329 443 339 540 336 b 319 325 536 193 379 208 b 282 472 299 364 285 415 b 303 647 278 531 285 593 b 553 736 343 769 469 846 b 597 653 576 703 581 690 b 790 725 632 571 790 646 b 449 1039 790 915 617 1035 b 29 500 153 1043 18 769 b 167 119 35 358 82 217 b 776 319 363 -108 768 -3 b 799 326 785 321 792 324 b 799 525 842 349 825 536 z "},"I":{"ha":347,"x_min":0,"x_max":0,"o":"m 311 943 b 250 1038 315 993 313 1024 b 121 1025 206 1047 150 1040 b 78 958 81 1001 81 968 b 60 69 51 822 17 260 b 317 85 93 -50 333 8 b 311 943 300 171 285 639 z "},"F":{"ha":696,"x_min":0,"x_max":0,"o":"m 639 1046 b 222 1036 626 1043 301 1047 b 153 1046 204 1043 181 1046 b 51 944 50 1043 53 960 b 51 68 39 797 4 269 b 193 -4 64 17 131 -6 b 308 58 256 -1 315 24 b 297 372 308 160 300 275 b 599 389 399 371 538 364 b 600 585 644 413 632 594 b 290 564 603 586 365 569 b 282 789 286 644 283 724 b 358 783 306 786 331 785 b 619 788 463 775 575 768 b 639 1046 681 814 682 1056 z "},"J":{"ha":771,"x_min":0,"x_max":0,"o":"m 697 936 b 535 1042 671 1042 610 1049 b 256 1033 439 1035 346 1033 b 156 1025 213 1033 176 1032 b 108 919 128 1015 111 965 b 132 829 104 872 113 832 b 449 840 215 818 388 825 b 444 372 463 678 483 524 b 271 353 407 238 308 203 b 276 607 254 447 269 532 b 61 631 283 676 108 722 b 40 561 51 608 44 585 b 143 96 11 400 40 208 b 565 79 264 -37 446 -18 b 697 936 785 267 751 699 z "},"K":{"ha":794,"x_min":0,"x_max":0,"o":"m 454 542 b 731 886 560 625 696 753 b 576 1040 753 988 657 1019 b 489 997 503 1058 511 1047 b 296 731 438 896 375 806 b 297 951 296 863 296 907 b 171 1044 301 1024 228 1044 b 74 981 104 1044 82 1010 b 68 58 40 861 13 185 b 325 65 103 -50 343 3 b 306 340 324 74 313 200 b 522 19 393 225 467 121 b 753 76 550 -31 713 13 b 754 136 764 94 763 115 b 454 542 693 289 567 435 z "},"L":{"ha":696,"x_min":0,"x_max":0,"o":"m 642 283 b 313 256 642 283 390 263 b 303 951 306 517 303 951 b 172 1043 303 951 314 1049 b 71 972 71 1038 72 986 b 47 135 67 935 28 364 b 207 -3 58 19 107 -3 b 557 8 249 -3 446 -3 b 656 63 607 13 643 14 b 642 283 676 138 672 289 z "},"M":{"ha":1075,"x_min":0,"x_max":0,"o":"m 1044 951 b 803 996 1061 1067 854 1061 b 532 631 765 950 610 733 b 265 1004 464 725 328 921 b 142 1040 243 1033 215 1049 b 50 933 40 1028 51 947 b 39 72 53 824 13 181 b 299 53 63 -35 307 -18 b 297 533 297 60 303 319 b 456 328 347 454 407 368 b 617 329 496 294 569 289 b 761 525 650 358 753 501 b 786 51 761 413 764 114 b 936 -4 804 -4 872 -14 b 1044 99 1038 13 1051 40 b 1044 951 1017 383 1004 674 z "},"N":{"ha":929,"x_min":0,"x_max":0,"o":"m 882 963 b 622 979 858 1068 614 1050 b 629 475 622 978 619 672 b 303 982 511 643 411 815 b 158 1039 279 1025 253 1035 b 57 940 56 1039 60 954 b 76 53 38 783 0 258 b 335 74 118 -53 354 11 b 328 121 333 76 332 93 b 297 533 313 261 307 396 b 610 72 401 417 547 183 b 786 3 639 21 686 -17 b 882 149 874 15 878 83 b 882 963 892 308 901 867 z "},"O":{"ha":801,"x_min":0,"x_max":0,"o":"m 406 1032 b 414 0 -94 1024 -115 -15 b 406 1032 913 14 885 1040 z m 551 539 b 250 522 553 131 236 111 b 551 539 263 872 550 894 z "},"P":{"ha":772,"x_min":0,"x_max":0,"o":"m 244 1038 b 218 1035 244 1038 233 1038 b 146 1038 199 1039 176 1043 b 53 933 43 1026 54 947 b 53 82 46 828 22 189 b 310 69 78 -24 321 1 b 308 189 310 75 308 121 b 749 603 533 219 732 378 b 244 1038 775 901 510 1067 z m 304 446 b 303 458 304 446 304 458 b 290 810 300 581 294 696 b 304 446 650 828 594 447 z "},"Q":{"ha":800,"x_min":0,"x_max":0,"o":"m 778 139 b 685 219 775 140 735 176 b 410 1031 838 489 783 1054 b 375 -7 -74 1006 -115 -24 b 554 60 440 -6 503 18 b 639 -6 589 28 619 1 b 778 139 692 -25 807 122 z m 419 779 b 514 372 557 779 561 449 b 456 428 499 385 456 428 b 357 382 456 428 425 464 b 342 293 306 324 338 300 b 375 250 343 290 358 274 b 419 779 172 276 246 779 z "},"R":{"ha":751,"x_min":0,"x_max":0,"o":"m 211 1035 b 35 951 113 1054 32 1028 b 46 61 33 846 14 168 b 304 49 74 -44 317 -19 b 303 185 304 54 304 119 b 631 -4 381 118 526 -4 b 697 179 706 0 751 175 b 486 304 619 199 526 250 b 394 1019 836 493 761 944 b 211 1035 333 1032 271 1038 z m 281 824 b 292 464 600 815 526 482 b 281 824 286 578 289 711 z "},"T":{"ha":767,"x_min":0,"x_max":0,"o":"m 706 1033 b 86 1040 700 1032 96 1043 b 21 910 86 1040 17 1050 b 89 811 22 807 79 814 b 254 789 100 808 168 800 b 253 51 231 619 208 176 b 511 57 288 -44 526 -4 b 492 768 497 99 485 643 b 685 775 574 763 647 763 b 706 1033 760 800 753 1043 z "},"U":{"ha":935,"x_min":0,"x_max":0,"o":"m 322 940 b 196 1040 338 1011 267 1035 b 93 976 128 1044 104 1010 b 38 458 49 829 17 635 b 464 3 63 243 215 -1 b 750 149 581 6 678 64 b 832 961 935 367 933 697 b 664 1035 803 1032 750 1060 b 581 911 606 1013 558 974 b 646 549 607 831 649 636 b 269 560 633 200 290 140 b 322 940 264 683 296 807 z "},"V":{"ha":818,"x_min":0,"x_max":0,"o":"m 547 971 b 389 415 486 796 440 583 b 242 971 331 585 285 804 b 93 1028 242 971 229 1068 b 24 906 -6 999 21 919 b 199 154 61 663 131 369 b 385 -3 228 63 281 -11 b 550 128 483 4 521 46 b 801 940 624 328 776 831 b 665 1043 810 1001 733 1036 b 547 971 589 1051 568 1033 z "},"X":{"ha":794,"x_min":0,"x_max":0,"o":"m 768 139 b 689 288 764 144 735 204 b 554 524 653 354 604 439 b 757 867 649 663 735 799 b 543 1013 796 982 572 1081 b 397 775 540 1004 478 906 b 257 990 350 849 289 946 b 92 992 214 1050 163 1050 b 74 844 11 929 67 860 b 249 533 85 829 160 692 b 28 156 178 419 74 243 b 94 4 -14 93 39 32 b 233 53 186 -39 225 40 b 386 281 243 65 307 169 b 531 35 426 194 474 107 b 690 17 568 -11 635 -15 b 768 139 747 44 790 108 z "},"Y":{"ha":879,"x_min":0,"x_max":0,"o":"m 696 1050 b 629 969 640 1040 644 1018 b 504 696 600 875 546 767 b 226 1033 472 785 338 1000 b 31 868 117 1067 13 940 b 179 715 42 824 118 789 b 358 469 250 631 329 522 b 358 468 358 469 358 468 b 135 193 292 354 207 274 b 106 103 108 164 93 143 b 167 32 115 75 139 51 b 311 4 215 -3 261 -25 b 857 863 564 156 811 660 b 696 1050 881 965 838 1069 z "},"Z":{"ha":783,"x_min":0,"x_max":0,"o":"m 724 275 b 388 281 635 281 499 285 b 374 279 383 281 379 279 b 736 788 438 382 735 789 b 747 806 736 788 740 794 b 700 1011 793 868 753 1004 b 118 1024 672 1015 225 1067 b 110 763 44 993 64 750 b 419 776 118 765 271 772 b 49 256 279 607 153 440 b 36 101 26 215 14 174 b 126 1 68 1 117 1 b 376 18 140 1 257 22 b 553 11 438 17 500 13 b 678 18 607 10 653 10 b 749 157 714 29 739 93 b 724 275 757 218 749 276 z "},"&":{"ha":888,"x_min":0,"x_max":0,"o":"m 821 239 b 781 247 818 239 794 243 b 785 256 782 250 783 253 b 843 353 813 294 832 328 b 794 496 874 419 842 469 b 672 481 749 519 690 518 b 572 347 638 436 608 389 b 447 457 522 381 485 418 b 447 457 447 457 447 457 b 699 839 549 567 714 668 b 481 1031 689 950 596 1025 b 150 551 215 1042 89 774 b 111 69 28 421 -29 200 b 604 75 251 -60 465 -19 b 739 36 658 53 704 43 b 828 63 778 33 808 44 b 856 203 863 97 867 160 b 821 239 850 222 840 236 z m 456 774 b 343 665 419 736 378 704 b 396 818 346 726 357 782 b 456 774 447 869 533 851 z m 249 356 b 406 206 292 299 350 235 b 249 356 264 149 211 253 z "},"!":{"ha":335,"x_min":0,"x_max":0,"o":"m 269 85 b 158 186 269 144 219 186 b 47 85 97 186 47 144 b 158 -17 47 31 97 -17 b 269 85 219 -17 269 31 z m 278 331 b 307 990 278 331 303 971 b 44 979 321 1039 76 1060 b 47 328 19 861 14 488 b 144 261 56 289 79 267 b 278 331 286 258 278 331 z "},"?":{"ha":690,"x_min":0,"x_max":0,"o":"m 379 82 b 275 181 379 140 332 181 b 168 82 215 181 168 140 b 275 -17 168 29 215 -17 b 379 82 332 -17 379 29 z m 343 619 b 192 306 276 547 154 418 b 332 240 210 254 264 233 b 385 279 360 243 382 254 b 592 572 400 414 511 467 b 657 854 654 656 690 744 b 399 1038 626 953 542 1039 b 39 740 233 1036 61 917 b 185 576 26 644 89 565 b 271 679 250 583 257 614 b 306 767 278 715 290 744 b 418 738 358 844 438 829 b 343 619 406 694 379 660 z "},"(":{"ha":479,"x_min":0,"x_max":0,"o":"m 438 903 b 378 1049 488 979 426 1019 b 271 1049 333 1074 293 1069 b 193 0 8 793 -61 239 b 419 22 247 -51 347 -54 b 425 122 451 57 454 97 b 438 903 183 333 268 657 z "},"/":{"ha":699,"x_min":0,"x_max":0,"o":"m 661 922 b 582 1069 661 922 717 1022 b 442 1001 485 1108 451 1015 b 26 64 382 894 31 197 b 264 -43 6 -64 249 -121 b 661 922 394 278 518 601 z "},"$":{"ha":574,"x_min":0,"x_max":0,"o":"m 361 721 b 419 651 383 707 403 683 b 494 674 425 642 464 643 b 356 896 528 703 588 846 b 363 990 357 922 364 965 b 226 1029 363 1043 225 1036 b 226 888 226 982 226 935 b 71 569 54 817 21 679 b 308 353 117 465 229 422 b 279 232 360 307 331 236 b 189 361 219 226 199 303 b 36 290 175 410 33 375 b 208 61 39 178 100 76 b 218 -10 207 29 213 3 b 350 -8 233 -35 357 -24 b 343 68 350 -7 346 26 b 539 346 467 79 544 218 b 324 625 532 488 425 561 b 361 721 229 690 271 775 z "},".":{"ha":267,"x_min":0,"x_max":0,"o":"m 231 113 b 133 207 231 164 188 207 b 38 113 81 207 38 164 b 133 15 38 58 81 15 b 231 113 188 15 231 58 z "},",":{"ha":288,"x_min":0,"x_max":0,"o":"m 74 154 b 17 -42 74 154 25 -11 b 121 -65 10 -72 92 -72 b 249 154 147 -58 256 122 b 125 204 243 186 154 201 b 74 154 97 206 85 193 z "},"-":{"ha":714,"x_min":0,"x_max":0,"o":"m 99 496 b 49 393 99 496 40 499 b 111 322 56 317 103 324 b 622 331 136 319 529 296 b 619 526 682 356 660 539 b 99 496 607 524 99 496 z "},"+":{"ha":889,"x_min":0,"x_max":0,"o":"m 794 550 b 542 536 788 549 674 542 b 550 736 543 613 542 675 b 454 806 557 803 496 803 b 376 740 378 810 378 749 b 350 528 372 728 360 639 b 111 519 219 524 111 519 b 44 419 111 519 36 525 b 125 346 53 340 114 347 b 343 338 139 344 231 340 b 364 117 343 242 350 156 b 560 126 390 43 574 81 b 543 336 558 132 550 222 b 794 353 653 336 750 339 b 794 550 876 375 846 560 z "},"=":{"ha":710,"x_min":0,"x_max":0,"o":"m 99 347 b 49 247 99 347 40 354 b 111 176 56 169 104 176 b 624 186 136 172 529 150 b 622 382 685 211 660 393 b 99 347 608 378 99 347 z m 99 650 b 49 549 99 650 40 656 b 111 478 56 471 104 479 b 624 486 136 472 529 451 b 622 683 685 510 660 693 b 99 650 608 678 99 650 z "},"":{"ha":758,"x_min":0,"x_max":0,"o":"m 704 993 b 574 1093 704 993 715 1103 b 472 979 469 1088 475 994 b 444 -1 467 932 407 178 b 706 -15 472 -122 719 -89 b 704 993 703 11 704 993 z m 308 929 b 183 1026 322 1000 242 1024 b 79 929 81 1026 82 943 b 78 56 47 772 14 264 b 336 69 117 -50 354 4 b 308 929 317 179 290 740 z "},"":{"ha":1932,"x_min":0,"x_max":0,"o":"m 1597 860 b 1211 756 1471 894 1322 858 b 1217 838 1213 807 1217 838 b 1093 943 1221 911 1156 940 b 981 868 989 950 982 883 b 944 189 968 774 931 428 b 1079 -85 950 89 954 -81 b 1199 -61 1119 -87 1165 -79 b 1239 92 1265 -28 1242 33 b 1304 510 1232 238 1228 389 b 1586 260 1426 703 1661 649 b 1565 124 1576 206 1568 160 b 1682 -15 1554 33 1619 -1 b 1814 46 1744 -28 1799 -15 b 1861 408 1843 165 1861 296 b 1597 860 1861 599 1793 806 z m 822 513 b 519 815 792 675 685 808 b 311 774 449 818 375 799 b 301 796 308 779 307 788 b 185 836 288 817 254 836 b 83 758 82 838 86 769 b 68 65 68 660 35 164 b 328 61 99 -19 340 7 b 314 371 325 71 318 217 b 315 376 314 372 314 375 b 447 557 313 493 379 556 b 586 408 536 560 572 475 b 586 157 604 325 597 235 b 575 82 586 157 575 106 b 804 53 575 -8 768 -26 b 822 513 842 136 844 399 z "},")":{"ha":500,"x_min":0,"x_max":0,"o":"m 51 117 b 111 -29 1 40 63 0 b 218 -29 156 -54 196 -50 b 296 1019 481 226 550 781 b 69 997 242 1071 142 1074 b 64 897 38 963 35 922 b 51 117 306 686 221 363 z "},":":{"ha":271,"x_min":0,"x_max":0,"o":"m 231 140 b 133 235 231 192 188 235 b 38 140 81 235 38 192 b 133 43 38 86 81 43 b 231 140 188 43 231 86 z m 231 650 b 133 744 231 701 188 744 b 38 650 81 744 38 701 b 133 553 38 596 81 553 b 231 650 188 553 231 596 z "},"%":{"ha":863,"x_min":0,"x_max":0,"o":"m 722 885 b 644 1014 722 885 776 972 b 508 954 550 1049 518 967 b 104 126 450 858 108 243 b 335 31 83 13 321 -37 b 722 885 463 315 583 601 z m 197 1024 b 203 685 -17 1024 -28 669 b 197 1024 421 703 428 1031 z m 239 857 b 158 856 233 797 158 789 b 239 857 158 929 249 931 z m 658 364 b 664 25 444 364 433 10 b 658 364 882 43 889 371 z m 700 197 b 619 196 694 138 619 129 b 700 197 619 269 710 271 z "},"'":{"ha":238,"x_min":0,"x_max":0,"o":"m 33 982 b 25 804 33 982 29 863 b 29 765 24 785 24 772 b 113 761 46 743 93 753 b 151 801 133 769 143 785 b 204 1022 169 844 221 990 b 72 1042 192 1051 101 1046 b 33 982 44 1036 36 1022 z "},"\"":{"ha":467,"x_min":0,"x_max":0,"o":"m 33 982 b 25 804 33 982 29 863 b 29 765 24 785 24 772 b 113 761 46 743 93 753 b 151 801 133 769 143 785 b 204 1022 169 844 221 990 b 72 1042 192 1051 101 1046 b 33 982 44 1036 36 1022 z m 267 982 b 258 804 267 982 263 863 b 263 765 257 785 257 772 b 346 761 279 743 326 753 b 385 801 367 769 376 785 b 438 1022 403 844 454 990 b 306 1042 425 1051 335 1046 b 267 982 278 1036 269 1022 z "},"H":{"ha":825,"x_min":0,"x_max":0,"o":"m 774 792 b 786 919 781 868 786 919 b 781 967 786 919 793 942 b 669 1025 769 992 742 1018 b 558 936 569 1035 563 953 b 504 590 553 919 521 767 b 369 581 465 588 418 585 b 303 575 349 579 326 576 b 315 801 304 658 310 739 b 328 933 322 882 328 933 b 322 982 328 933 335 957 b 210 1040 310 1007 281 1035 b 100 950 108 1050 103 965 b 43 256 47 722 29 485 b 76 54 50 167 63 94 b 226 1 97 1 167 -11 b 335 75 290 11 344 43 b 318 218 332 81 325 135 b 310 321 315 249 311 283 b 494 319 372 317 433 317 b 529 57 496 233 499 132 b 681 3 549 4 618 -7 b 786 74 743 14 797 43 b 769 226 785 79 775 147 b 774 792 753 418 757 607 z "},"a":{"ha":856,"x_min":0,"x_max":0,"o":"m 817 667 b 732 739 817 667 831 721 b 344 793 668 861 443 835 b 79 194 113 693 -25 399 b 540 69 168 25 389 -29 b 549 50 544 61 546 56 b 700 19 568 11 636 8 b 806 75 760 32 815 56 b 793 169 804 79 797 114 b 817 667 775 335 797 510 z m 564 604 b 568 603 565 603 565 603 b 511 396 551 524 542 454 b 308 422 413 219 275 289 b 564 604 340 546 454 604 z "},"p":{"ha":782,"x_min":0,"x_max":0,"o":"m 243 807 b 138 825 221 824 190 833 b 49 710 36 807 50 725 b 69 -186 47 599 42 -74 b 328 -193 97 -297 339 -265 b 321 38 326 -186 325 -89 b 496 783 794 61 890 619 b 243 807 411 819 328 821 z m 310 275 b 293 539 306 368 299 454 b 310 275 556 536 507 275 z "}}}
